<svg width="82" height="82" viewBox="0 0 82 82" fill="none" xmlns="http://www.w3.org/2000/svg">
<g clip-path="url(#clip0_1_215)">
<path d="M79.6659 -0.000366211H2.25507V81.9198H79.6659V-0.000366211Z" fill="#28638F"/>
<path d="M13.3029 74.1787L12.6264 72.4501H9.39474L8.71833 74.1787H7.7413L10.6724 67.114H11.3488L14.2799 74.1787H13.3029ZM9.77052 71.6985H12.4761L11.1985 68.1662L9.77052 71.6985Z" fill="white"/>
<path d="M18.4888 66.9636C19.1652 66.9636 19.9919 67.0388 20.518 67.2642V68.091C19.9919 67.8655 19.4658 67.7903 18.4888 67.7903C16.7602 67.7903 16.2341 69.2183 16.2341 70.5711C16.2341 71.9991 16.7602 73.3519 18.4888 73.3519C19.4658 73.3519 19.9919 73.2767 20.518 73.0513V73.878C19.8416 74.1035 19.09 74.1786 18.4888 74.1786C16.1589 74.1786 15.257 72.6003 15.257 70.496C15.257 68.6171 16.2341 66.9636 18.4888 66.9636Z" fill="white"/>
<path d="M25.5533 66.9636C26.2297 66.9636 27.0564 67.0388 27.5825 67.2642V68.091C27.0564 67.8655 26.5303 67.7903 25.5533 67.7903C23.8247 67.7903 23.2986 69.2183 23.2986 70.5711C23.2986 71.9991 23.8247 73.3519 25.5533 73.3519C26.5303 73.3519 27.0564 73.2767 27.5825 73.0513V73.878C26.9061 74.1035 26.1545 74.1786 25.5533 74.1786C23.2234 74.1786 22.3215 72.6003 22.3215 70.496C22.2464 68.6171 23.2234 66.9636 25.5533 66.9636Z" fill="white"/>
<path d="M30.438 71.3988V74.1796H29.461V67.1901H32.4672C34.1958 67.1901 34.7219 68.0168 34.7219 69.3696C34.7219 70.3466 34.4213 71.0982 33.4443 71.3988L35.0225 74.3299H33.9704L32.4672 71.5491H30.438V71.3988ZM32.3169 67.9416H30.3629V70.4218H32.3169C33.5194 70.4218 33.7449 69.8957 33.7449 69.1441C33.7449 68.3926 33.5194 67.9416 32.3169 67.9416Z" fill="white"/>
<path d="M41.1852 70.947H37.5026V73.2768H41.7113V74.1035H36.6758V67.114H41.7113V67.9407H37.5026V70.1203H41.1852V70.947Z" fill="white"/>
<path d="M43.5156 74.1796V67.1901H45.8455C48.1753 67.1901 49.1523 68.618 49.1523 70.7224C49.1523 72.8268 48.1753 74.2547 45.8455 74.2547H43.5156V74.1796ZM45.9206 73.3529C47.7244 73.3529 48.2505 72.3007 48.2505 70.6472C48.2505 68.9938 47.7244 67.9416 45.9206 67.9416H44.4927V73.2026H45.9206V73.3529Z" fill="white"/>
<path d="M51.3312 74.1796V67.1901H52.3083V74.1796H51.3312Z" fill="white"/>
<path d="M57.4944 67.9407V74.1035H56.5174V67.9407H54.1876V67.114H59.7491V67.9407H57.4944Z" fill="white"/>
<path d="M65.9879 70.9469H62.3053V73.2767H66.514V74.1034H61.4786V67.1139H66.514V67.9406H62.3053V70.1201H65.9879V70.9469Z" fill="white"/>
<path d="M68.3167 74.1796V67.1901H70.6465C72.9763 67.1901 73.9534 68.618 73.9534 70.7224C73.9534 72.8268 72.9763 74.2547 70.6465 74.2547H68.3167V74.1796ZM70.7216 73.3529C72.5254 73.3529 73.0515 72.3007 73.0515 70.6472C73.0515 68.9938 72.5254 67.9416 70.7216 67.9416H69.2937V73.2026H70.7216V73.3529Z" fill="white"/>
<path d="M40.9604 7.66626L11.2737 17.662V22.5472L40.9604 12.5514L70.647 22.5472V17.662L40.9604 7.66626Z" fill="white"/>
<path d="M44.5678 29.0107C43.741 29.0107 43.0646 29.6871 43.0646 30.5139V47.2737H46.0709V30.4387C45.9957 29.6871 45.3193 29.0107 44.5678 29.0107Z" fill="white"/>
<path d="M50.0541 30.4375C49.2274 30.4375 48.551 31.1139 48.551 31.9406V47.3476H51.5572V31.9406C51.4821 31.1891 50.8056 30.4375 50.0541 30.4375Z" fill="white"/>
<path d="M55.5404 31.9414C54.7137 31.9414 54.0373 32.6178 54.0373 33.4445V47.3484H57.0435V33.4445C56.9684 32.693 56.292 31.9414 55.5404 31.9414Z" fill="white"/>
<path d="M61.0277 33.4453C60.201 33.4453 59.5246 34.1217 59.5246 34.9484V47.3492H62.4557V34.9484C62.4557 34.0466 61.7793 33.4453 61.0277 33.4453Z" fill="white"/>
<path d="M19.6161 30.6633L17.1359 31.49V47.2728H19.3155V34.9472C19.3155 34.1205 19.9919 33.444 20.8186 33.444C21.6453 33.444 22.3217 34.1205 22.3217 34.9472V47.3479H24.8018V33.444C24.8018 32.6173 25.4783 31.9409 26.305 31.9409C27.1317 31.9409 27.8081 32.6173 27.8081 33.444V47.3479H30.2882V31.9409C30.2882 31.1142 30.9646 30.4378 31.7914 30.4378C32.6181 30.4378 33.2945 31.1142 33.2945 31.9409V47.3479H35.7746V30.4378C35.7746 29.6111 36.451 28.9347 37.2778 28.9347C38.1045 28.9347 38.7809 29.6111 38.7809 30.4378V47.1976H40.9604V23.5234L19.6161 30.6633Z" fill="white"/>
<path d="M14.2795 24.5002V29.5357L15.031 29.2351L40.9599 20.5169L67.5652 29.5357V24.5002L40.9599 15.5566L14.2795 24.5002Z" fill="white"/>
<path d="M20.7435 57.644C20.2174 57.644 20.2174 57.644 19.992 58.1701L19.4659 59.5981C19.2404 60.3496 19.2404 60.3496 19.6913 60.4248L20.3678 60.4999C20.5932 60.5751 20.4429 61.026 20.2926 61.026C19.7665 61.026 19.2404 60.9509 18.564 60.9509C17.8876 60.9509 17.3615 60.9509 17.0609 61.026C16.8354 60.9509 16.8354 60.5751 17.0609 60.4999L17.587 60.4248C18.2634 60.3496 18.564 59.9739 19.0149 58.9217L21.1945 53.8862C21.4951 53.0595 21.7206 52.4582 21.7206 52.0825C22.1715 52.0073 22.5473 51.5564 22.6976 51.2557C22.9231 51.1806 22.9982 51.2557 22.9982 51.3309C23.0734 51.5564 23.4492 52.7589 23.9752 54.0365L26.0045 59.2974C26.2299 60.049 26.4554 60.2745 27.2821 60.4999L27.5827 60.5751C27.8082 60.6503 27.6579 61.1012 27.5076 61.1012C26.9815 61.1012 26.4554 61.026 25.7038 61.026C24.9523 61.026 24.2759 61.026 23.6746 61.1012C23.4492 61.026 23.4492 60.6503 23.6746 60.5751L24.1256 60.4999C24.6517 60.4248 24.6517 60.2745 24.4262 59.6732L23.7498 58.2453C23.5243 57.7192 23.5243 57.7192 22.9982 57.7192H20.7435V57.644ZM22.4721 56.8924C22.9982 56.8924 23.1485 56.8925 22.9231 56.216L22.2467 54.4123C22.0212 53.8862 22.0212 53.7359 21.946 53.6607C21.8709 53.7359 21.8709 53.9614 21.6454 54.4123L20.8938 56.3664C20.6684 57.0428 20.6684 57.0428 21.1945 57.0428H22.4721V56.8924Z" fill="white"/>
<path d="M36.8274 51.4821C36.8274 51.9331 36.9026 52.9853 37.0529 53.9623C36.9777 54.1878 36.602 54.1878 36.5268 53.9623C36.2262 52.7598 35.4746 51.7076 33.4454 51.7076C31.4913 51.7076 29.6876 52.9853 29.6876 55.9915C29.6876 58.9978 31.6417 60.6512 33.6709 60.6512C35.7001 60.6512 36.602 59.0729 36.9026 58.3965C36.9777 58.171 37.3535 58.171 37.4287 58.3965C37.3535 59.3735 36.9777 60.4257 36.6771 60.7263C36.0007 60.8015 35.174 61.1773 33.6709 61.1773C32.2429 61.1773 30.8901 60.9518 29.8379 60.2003C28.6354 59.3735 27.6584 58.0207 27.6584 56.217C27.6584 54.4132 28.4099 53.1356 29.4621 52.2337C30.5143 51.407 32.0174 50.9561 33.746 50.9561C35.3243 51.0312 36.7523 51.4821 36.8274 51.4821Z" fill="white"/>
<path d="M46.6717 55.6911C47.4233 55.6911 47.4233 55.6911 47.4233 55.165V53.7371C47.4233 52.2339 47.3481 52.1588 46.3711 52.0085L45.9201 51.9333C45.845 51.8582 45.845 51.4072 45.9201 51.4072C46.7468 51.4072 47.4233 51.4824 48.1748 51.4824C48.9264 51.4824 49.6028 51.4824 50.4295 51.4072C50.655 51.4824 50.655 51.8582 50.4295 51.9333L49.9786 52.0085C49.0015 52.0836 48.9264 52.2339 48.9264 53.7371V58.6974C48.9264 60.2005 49.0015 60.2756 49.9786 60.426L50.5047 60.5011C50.5798 60.5763 50.5798 61.0272 50.5047 61.0272C49.5276 61.0272 48.9264 60.9521 48.1748 60.9521C47.4233 60.9521 46.7468 60.952 45.9201 61.0272C45.6947 60.952 45.6947 60.5763 45.9201 60.5011L46.3711 60.426C47.3481 60.3508 47.4233 60.2005 47.4233 58.6974V56.9688C47.4233 56.4427 47.4233 56.4427 46.6717 56.4427H42.8387C42.0872 56.4427 42.0872 56.4427 42.0872 56.9688V58.6974C42.0872 60.2005 42.1623 60.2756 43.1394 60.426L43.8158 60.5011C43.8909 60.5763 43.8909 61.0272 43.8158 61.0272C42.8387 61.0272 42.0872 60.9521 41.3356 60.9521C40.584 60.9521 39.9076 60.952 39.3064 61.0272C39.0809 60.952 39.0809 60.5763 39.3064 60.5011L39.5319 60.426C40.5089 60.2005 40.584 60.2005 40.584 58.6974V53.7371C40.584 52.2339 40.5089 52.1588 39.5319 52.0085L39.0058 51.9333C38.9306 51.8582 38.9306 51.4072 39.0058 51.4072C39.9828 51.4072 40.584 51.4824 41.3356 51.4824C42.0872 51.4824 42.7636 51.4824 43.5151 51.4072C43.7406 51.4824 43.7406 51.8582 43.5151 51.9333L43.2145 52.0085C42.2375 52.2339 42.1623 52.2339 42.1623 53.7371V55.165C42.1623 55.6911 42.2375 55.6911 42.9139 55.6911H46.6717Z" fill="white"/>
<path d="M61.4779 51.4821C61.4779 51.9331 61.5531 52.9853 61.7034 53.9623C61.6283 54.1878 61.2525 54.1878 61.1773 53.9623C60.8767 52.7598 60.1251 51.7076 58.0959 51.7076C56.1419 51.7076 54.3381 52.9853 54.3381 55.9915C54.3381 58.9978 56.2922 60.6512 58.3214 60.6512C60.3506 60.6512 61.2525 59.0729 61.5531 58.3965C61.6283 58.171 62.004 58.171 62.0792 58.3965C62.004 59.3735 61.6283 60.4257 61.3276 60.7263C60.6512 60.8015 59.8245 61.1773 58.3214 61.1773C56.8934 61.1773 55.5406 60.9518 54.4884 60.2003C53.2859 59.3735 52.3089 58.0207 52.3089 56.217C52.3089 54.4132 53.0605 53.1356 54.1126 52.2337C55.1648 51.407 56.668 50.9561 58.3965 50.9561C59.8245 51.0312 61.2525 51.4821 61.4779 51.4821Z" fill="white"/>
<path d="M65.5363 59.4492C66.5885 59.4492 67.4903 60.1256 67.4903 61.253C67.4903 62.4555 66.6636 63.0567 65.5363 63.0567C64.4841 63.0567 63.5822 62.3803 63.5822 61.253C63.6574 60.1256 64.4841 59.4492 65.5363 59.4492ZM65.5363 62.9816C66.5885 62.9816 67.2649 62.3052 67.2649 61.253C67.2649 60.2008 66.5133 59.5244 65.5363 59.5244C64.5592 59.5244 63.8077 60.2008 63.8077 61.253C63.7325 62.3803 64.4841 62.9816 65.5363 62.9816ZM64.935 62.3803H64.7096V60.2008H65.6866C66.2127 60.2008 66.363 60.5014 66.363 60.8772C66.363 61.1778 66.1375 61.4033 65.9121 61.4033L66.363 62.3803H66.1375L65.6866 61.4033H64.935V62.3803ZM64.935 61.253H65.6866C65.9872 61.253 66.1375 61.0275 66.1375 60.802C66.1375 60.5766 66.1375 60.3511 65.6866 60.3511H64.935V61.253Z" fill="white"/>
</g>
<defs>
<clipPath id="clip0_1_215">
<rect width="81.9202" height="81.9202" fill="white"/>
</clipPath>
</defs>
</svg>
